# xmcd
#
# Track frame offsets:
# 150
# 7132
# 19392
# 36720
# 43240
# 54965
# 69185
# 73852
# 87732
# 93792
# 101150
# 107292
# 115327
# 126135
# 136912
# 144610
# 152312
# 161565
#
# Disc length: 2256 seconds
#
#
# Revision: 0
# Processed by: cddbd v1.5.1PL0 Copyright (c) Steve Scherf et al.
# Submitted via: FreeRIP 2.51 
#
DISCID=fa08ce12
DTITLE=Dean Shostak - 18th Century Mother Goose Songs
DYEAR=2002
DGENRE=Country
TTITLE0=Jack and Jill
TTITLE1=Alphabet Soup
TTITLE2=Pat-a-Cake
TTITLE3=Oranges and Lemons
TTITLE4=Hush-a-Bye and Little Boy Blue
TTITLE5=Frost and Snow
TTITLE6=My Dame Hath a Lame, Tame, Crane
TTITLE7=Tom, the Piper's Son
TTITLE8=London Bridge
TTITLE9=Sing a Song of Sixpence
TTITLE10=Heigh Ho, Nobody Home
TTITLE11=Good King Arthur
TTITLE12=The Marriage of Frogge and the Mouse
TTITLE13=Here We Go 'Round the Mulberry Bush
TTITLE14=There Was a Lady Who Loved a Swine
TTITLE15=The North Wind Doth Blow
TTITLE16=Bobby Shafto
TTITLE17=Boys and Girls Come Out to Play
EXTD=
EXTT0=
EXTT1=
EXTT2=
EXTT3=
EXTT4=
EXTT5=
EXTT6=
EXTT7=
EXTT8=
EXTT9=
EXTT10=
EXTT11=
EXTT12=
EXTT13=
EXTT14=
EXTT15=
EXTT16=
EXTT17=
PLAYORDER=
